<mxfile host="app.diagrams.net" modified="2024-05-01T07:34:39.226Z" agent="Mozilla/5.0 (Windows NT 10.0; Win64; x64) AppleWebKit/537.36 (KHTML, like Gecko) Chrome/124.0.0.0 Safari/537.36" etag="esvnJVL5KnPlckrdrAFG" version="24.3.1" type="github">
  <diagram id="C5RBs43oDa-KdzZeNtuy" name="Page-1">
    <mxGraphModel dx="1290" dy="522" grid="1" gridSize="10" guides="1" tooltips="1" connect="1" arrows="1" fold="1" page="1" pageScale="1" pageWidth="827" pageHeight="1169" math="0" shadow="0">
      <root>
        <mxCell id="WIyWlLk6GJQsqaUBKTNV-0" />
        <mxCell id="WIyWlLk6GJQsqaUBKTNV-1" parent="WIyWlLk6GJQsqaUBKTNV-0" />
        <mxCell id="WIyWlLk6GJQsqaUBKTNV-2" value="" style="rounded=0;html=1;jettySize=auto;orthogonalLoop=1;fontSize=11;endArrow=block;endFill=0;endSize=8;strokeWidth=1;shadow=0;labelBackgroundColor=none;edgeStyle=orthogonalEdgeStyle;entryX=0.5;entryY=0;entryDx=0;entryDy=0;" parent="WIyWlLk6GJQsqaUBKTNV-1" source="WIyWlLk6GJQsqaUBKTNV-3" target="5gO9kf-e_ShnSdOG_t4v-3" edge="1">
          <mxGeometry relative="1" as="geometry" />
        </mxCell>
        <mxCell id="WIyWlLk6GJQsqaUBKTNV-3" value="Start Application Concert" style="rounded=1;whiteSpace=wrap;html=1;fontSize=12;glass=0;strokeWidth=1;shadow=0;" parent="WIyWlLk6GJQsqaUBKTNV-1" vertex="1">
          <mxGeometry x="160" y="80" width="120" height="40" as="geometry" />
        </mxCell>
        <mxCell id="WIyWlLk6GJQsqaUBKTNV-4" value="" style="rounded=0;html=1;jettySize=auto;orthogonalLoop=1;fontSize=11;endArrow=block;endFill=0;endSize=8;strokeWidth=1;shadow=0;labelBackgroundColor=none;edgeStyle=orthogonalEdgeStyle;exitX=0.5;exitY=1;exitDx=0;exitDy=0;" parent="WIyWlLk6GJQsqaUBKTNV-1" source="5gO9kf-e_ShnSdOG_t4v-14" target="WIyWlLk6GJQsqaUBKTNV-10" edge="1">
          <mxGeometry y="20" relative="1" as="geometry">
            <mxPoint as="offset" />
            <mxPoint x="220" y="340" as="sourcePoint" />
          </mxGeometry>
        </mxCell>
        <mxCell id="WIyWlLk6GJQsqaUBKTNV-5" value="" style="edgeStyle=orthogonalEdgeStyle;rounded=0;html=1;jettySize=auto;orthogonalLoop=1;fontSize=11;endArrow=block;endFill=0;endSize=8;strokeWidth=1;shadow=0;labelBackgroundColor=none;entryX=0;entryY=0.5;entryDx=0;entryDy=0;exitX=1;exitY=0.5;exitDx=0;exitDy=0;" parent="WIyWlLk6GJQsqaUBKTNV-1" source="5gO9kf-e_ShnSdOG_t4v-14" target="5gO9kf-e_ShnSdOG_t4v-6" edge="1">
          <mxGeometry y="10" relative="1" as="geometry">
            <mxPoint as="offset" />
            <mxPoint x="270" y="300" as="sourcePoint" />
            <mxPoint x="330" y="290" as="targetPoint" />
          </mxGeometry>
        </mxCell>
        <mxCell id="WIyWlLk6GJQsqaUBKTNV-8" value="" style="rounded=0;html=1;jettySize=auto;orthogonalLoop=1;fontSize=11;endArrow=block;endFill=0;endSize=8;strokeWidth=1;shadow=0;labelBackgroundColor=none;edgeStyle=orthogonalEdgeStyle;entryX=1;entryY=0.5;entryDx=0;entryDy=0;exitX=0;exitY=0.5;exitDx=0;exitDy=0;" parent="WIyWlLk6GJQsqaUBKTNV-1" source="5gO9kf-e_ShnSdOG_t4v-3" target="5gO9kf-e_ShnSdOG_t4v-83" edge="1">
          <mxGeometry x="0.3333" y="20" relative="1" as="geometry">
            <mxPoint as="offset" />
            <mxPoint x="180" y="560" as="targetPoint" />
            <Array as="points">
              <mxPoint x="200" y="190" />
            </Array>
          </mxGeometry>
        </mxCell>
        <mxCell id="WIyWlLk6GJQsqaUBKTNV-9" value="Yes" style="edgeStyle=orthogonalEdgeStyle;rounded=0;html=1;jettySize=auto;orthogonalLoop=1;fontSize=11;endArrow=block;endFill=0;endSize=8;strokeWidth=1;shadow=0;labelBackgroundColor=none;entryX=0;entryY=0.5;entryDx=0;entryDy=0;" parent="WIyWlLk6GJQsqaUBKTNV-1" source="WIyWlLk6GJQsqaUBKTNV-10" target="5gO9kf-e_ShnSdOG_t4v-21" edge="1">
          <mxGeometry y="10" relative="1" as="geometry">
            <mxPoint as="offset" />
            <mxPoint x="320" y="420" as="targetPoint" />
          </mxGeometry>
        </mxCell>
        <mxCell id="WIyWlLk6GJQsqaUBKTNV-10" value="Edit Genre" style="rhombus;whiteSpace=wrap;html=1;shadow=0;fontFamily=Helvetica;fontSize=12;align=center;strokeWidth=1;spacing=6;spacingTop=-4;" parent="WIyWlLk6GJQsqaUBKTNV-1" vertex="1">
          <mxGeometry x="170" y="380" width="100" height="80" as="geometry" />
        </mxCell>
        <mxCell id="WIyWlLk6GJQsqaUBKTNV-11" value="End Application Concert" style="rounded=1;whiteSpace=wrap;html=1;fontSize=12;glass=0;strokeWidth=1;shadow=0;" parent="WIyWlLk6GJQsqaUBKTNV-1" vertex="1">
          <mxGeometry x="160" y="1277" width="120" height="40" as="geometry" />
        </mxCell>
        <mxCell id="5gO9kf-e_ShnSdOG_t4v-1" value="Location" style="shape=process;whiteSpace=wrap;html=1;backgroundOutline=1;" vertex="1" parent="WIyWlLk6GJQsqaUBKTNV-1">
          <mxGeometry x="160" y="520" width="120" height="60" as="geometry" />
        </mxCell>
        <mxCell id="5gO9kf-e_ShnSdOG_t4v-3" value="Genre" style="shape=process;whiteSpace=wrap;html=1;backgroundOutline=1;" vertex="1" parent="WIyWlLk6GJQsqaUBKTNV-1">
          <mxGeometry x="160" y="160" width="120" height="60" as="geometry" />
        </mxCell>
        <mxCell id="5gO9kf-e_ShnSdOG_t4v-6" value="Input Image Genre" style="shape=dataStorage;whiteSpace=wrap;html=1;fixedSize=1;" vertex="1" parent="WIyWlLk6GJQsqaUBKTNV-1">
          <mxGeometry x="325" y="275" width="100" height="50" as="geometry" />
        </mxCell>
        <mxCell id="5gO9kf-e_ShnSdOG_t4v-12" value="" style="edgeStyle=orthogonalEdgeStyle;rounded=0;html=1;jettySize=auto;orthogonalLoop=1;fontSize=11;endArrow=block;endFill=0;endSize=8;strokeWidth=1;shadow=0;labelBackgroundColor=none;exitX=0.876;exitY=0.54;exitDx=0;exitDy=0;exitPerimeter=0;entryX=0;entryY=0.5;entryDx=0;entryDy=0;" edge="1" parent="WIyWlLk6GJQsqaUBKTNV-1" source="5gO9kf-e_ShnSdOG_t4v-6" target="5gO9kf-e_ShnSdOG_t4v-13">
          <mxGeometry y="10" relative="1" as="geometry">
            <mxPoint as="offset" />
            <mxPoint x="430" y="340" as="sourcePoint" />
            <mxPoint x="470" y="302" as="targetPoint" />
          </mxGeometry>
        </mxCell>
        <mxCell id="5gO9kf-e_ShnSdOG_t4v-13" value="Input genre_music" style="shape=parallelogram;perimeter=parallelogramPerimeter;whiteSpace=wrap;html=1;fixedSize=1;" vertex="1" parent="WIyWlLk6GJQsqaUBKTNV-1">
          <mxGeometry x="469" y="272" width="120" height="60" as="geometry" />
        </mxCell>
        <mxCell id="5gO9kf-e_ShnSdOG_t4v-14" value="Input Genre" style="shape=parallelogram;perimeter=parallelogramPerimeter;whiteSpace=wrap;html=1;fixedSize=1;" vertex="1" parent="WIyWlLk6GJQsqaUBKTNV-1">
          <mxGeometry x="160" y="270" width="120" height="60" as="geometry" />
        </mxCell>
        <mxCell id="5gO9kf-e_ShnSdOG_t4v-15" value="" style="edgeStyle=orthogonalEdgeStyle;rounded=0;html=1;jettySize=auto;orthogonalLoop=1;fontSize=11;endArrow=block;endFill=0;endSize=8;strokeWidth=1;shadow=0;labelBackgroundColor=none;entryX=0.5;entryY=0;entryDx=0;entryDy=0;exitX=0.5;exitY=1;exitDx=0;exitDy=0;" edge="1" parent="WIyWlLk6GJQsqaUBKTNV-1" source="5gO9kf-e_ShnSdOG_t4v-3" target="5gO9kf-e_ShnSdOG_t4v-14">
          <mxGeometry y="10" relative="1" as="geometry">
            <mxPoint as="offset" />
            <mxPoint x="280" y="310" as="sourcePoint" />
            <mxPoint x="330" y="310" as="targetPoint" />
          </mxGeometry>
        </mxCell>
        <mxCell id="5gO9kf-e_ShnSdOG_t4v-16" value="" style="edgeStyle=orthogonalEdgeStyle;rounded=0;html=1;jettySize=auto;orthogonalLoop=1;fontSize=11;endArrow=block;endFill=0;endSize=8;strokeWidth=1;shadow=0;labelBackgroundColor=none;exitX=1;exitY=0.5;exitDx=0;exitDy=0;entryX=1;entryY=0.5;entryDx=0;entryDy=0;" edge="1" parent="WIyWlLk6GJQsqaUBKTNV-1" source="5gO9kf-e_ShnSdOG_t4v-13" target="5gO9kf-e_ShnSdOG_t4v-3">
          <mxGeometry y="10" relative="1" as="geometry">
            <mxPoint as="offset" />
            <mxPoint x="290" y="320" as="sourcePoint" />
            <mxPoint x="660" y="310" as="targetPoint" />
            <Array as="points">
              <mxPoint x="680" y="302" />
              <mxPoint x="680" y="190" />
            </Array>
          </mxGeometry>
        </mxCell>
        <mxCell id="5gO9kf-e_ShnSdOG_t4v-17" value="With Upload Image" style="edgeStyle=orthogonalEdgeStyle;rounded=0;html=1;jettySize=auto;orthogonalLoop=1;fontSize=11;endArrow=block;endFill=0;endSize=8;strokeWidth=1;shadow=0;labelBackgroundColor=none;entryX=0.5;entryY=1;entryDx=0;entryDy=0;exitX=0.5;exitY=0;exitDx=0;exitDy=0;" edge="1" parent="WIyWlLk6GJQsqaUBKTNV-1" source="5gO9kf-e_ShnSdOG_t4v-21" target="5gO9kf-e_ShnSdOG_t4v-6">
          <mxGeometry y="10" relative="1" as="geometry">
            <mxPoint as="offset" />
            <mxPoint x="424.5" y="419" as="sourcePoint" />
            <mxPoint x="484.5" y="409" as="targetPoint" />
          </mxGeometry>
        </mxCell>
        <mxCell id="5gO9kf-e_ShnSdOG_t4v-21" value="Edit Genre" style="shape=parallelogram;perimeter=parallelogramPerimeter;whiteSpace=wrap;html=1;fixedSize=1;" vertex="1" parent="WIyWlLk6GJQsqaUBKTNV-1">
          <mxGeometry x="314.5" y="390" width="120" height="60" as="geometry" />
        </mxCell>
        <mxCell id="5gO9kf-e_ShnSdOG_t4v-27" value="No" style="edgeStyle=orthogonalEdgeStyle;rounded=0;html=1;jettySize=auto;orthogonalLoop=1;fontSize=11;endArrow=block;endFill=0;endSize=8;strokeWidth=1;shadow=0;labelBackgroundColor=none;entryX=0.5;entryY=0;entryDx=0;entryDy=0;" edge="1" parent="WIyWlLk6GJQsqaUBKTNV-1" target="5gO9kf-e_ShnSdOG_t4v-1">
          <mxGeometry y="10" relative="1" as="geometry">
            <mxPoint as="offset" />
            <mxPoint x="220" y="460" as="sourcePoint" />
            <mxPoint x="330" y="310" as="targetPoint" />
          </mxGeometry>
        </mxCell>
        <mxCell id="5gO9kf-e_ShnSdOG_t4v-28" value="Without Upload Image" style="edgeStyle=orthogonalEdgeStyle;rounded=0;html=1;jettySize=auto;orthogonalLoop=1;fontSize=11;endArrow=block;endFill=0;endSize=8;strokeWidth=1;shadow=0;labelBackgroundColor=none;entryX=0.5;entryY=1;entryDx=0;entryDy=0;exitX=1;exitY=0.5;exitDx=0;exitDy=0;" edge="1" parent="WIyWlLk6GJQsqaUBKTNV-1" source="5gO9kf-e_ShnSdOG_t4v-21" target="5gO9kf-e_ShnSdOG_t4v-13">
          <mxGeometry y="10" relative="1" as="geometry">
            <mxPoint as="offset" />
            <mxPoint x="373.3" y="510.02" as="sourcePoint" />
            <mxPoint x="675.7" y="513.2199999999999" as="targetPoint" />
            <Array as="points">
              <mxPoint x="529" y="420" />
            </Array>
          </mxGeometry>
        </mxCell>
        <mxCell id="5gO9kf-e_ShnSdOG_t4v-36" value="" style="rounded=0;html=1;jettySize=auto;orthogonalLoop=1;fontSize=11;endArrow=block;endFill=0;endSize=8;strokeWidth=1;shadow=0;labelBackgroundColor=none;edgeStyle=orthogonalEdgeStyle;entryX=1;entryY=0.5;entryDx=0;entryDy=0;exitX=0;exitY=0.5;exitDx=0;exitDy=0;" edge="1" parent="WIyWlLk6GJQsqaUBKTNV-1" target="5gO9kf-e_ShnSdOG_t4v-84" source="5gO9kf-e_ShnSdOG_t4v-1">
          <mxGeometry x="0.3333" y="20" relative="1" as="geometry">
            <mxPoint as="offset" />
            <mxPoint x="150" y="550" as="sourcePoint" />
            <mxPoint x="170" y="920" as="targetPoint" />
            <Array as="points" />
          </mxGeometry>
        </mxCell>
        <mxCell id="5gO9kf-e_ShnSdOG_t4v-41" value="Show Image Genre, Music_enre" style="strokeWidth=2;html=1;shape=mxgraph.flowchart.display;whiteSpace=wrap;" vertex="1" parent="WIyWlLk6GJQsqaUBKTNV-1">
          <mxGeometry x="13" y="270" width="100" height="60" as="geometry" />
        </mxCell>
        <mxCell id="5gO9kf-e_ShnSdOG_t4v-46" value="" style="rounded=0;html=1;jettySize=auto;orthogonalLoop=1;fontSize=11;endArrow=block;endFill=0;endSize=8;strokeWidth=1;shadow=0;labelBackgroundColor=none;edgeStyle=orthogonalEdgeStyle;entryX=0.5;entryY=0;entryDx=0;entryDy=0;entryPerimeter=0;exitX=0.5;exitY=1;exitDx=0;exitDy=0;" edge="1" parent="WIyWlLk6GJQsqaUBKTNV-1" target="5gO9kf-e_ShnSdOG_t4v-47" source="5gO9kf-e_ShnSdOG_t4v-84">
          <mxGeometry x="0.3333" y="20" relative="1" as="geometry">
            <mxPoint as="offset" />
            <mxPoint x="58" y="580" as="sourcePoint" />
            <mxPoint x="28" y="922.5" as="targetPoint" />
            <Array as="points" />
          </mxGeometry>
        </mxCell>
        <mxCell id="5gO9kf-e_ShnSdOG_t4v-47" value="Show Image Genre, City, Genre_music" style="strokeWidth=2;html=1;shape=mxgraph.flowchart.display;whiteSpace=wrap;" vertex="1" parent="WIyWlLk6GJQsqaUBKTNV-1">
          <mxGeometry x="11" y="609.5" width="100" height="60" as="geometry" />
        </mxCell>
        <mxCell id="5gO9kf-e_ShnSdOG_t4v-67" value="" style="rounded=0;html=1;jettySize=auto;orthogonalLoop=1;fontSize=11;endArrow=block;endFill=0;endSize=8;strokeWidth=1;shadow=0;labelBackgroundColor=none;edgeStyle=orthogonalEdgeStyle;exitX=0.5;exitY=1;exitDx=0;exitDy=0;" edge="1" parent="WIyWlLk6GJQsqaUBKTNV-1" source="5gO9kf-e_ShnSdOG_t4v-74" target="5gO9kf-e_ShnSdOG_t4v-70">
          <mxGeometry y="20" relative="1" as="geometry">
            <mxPoint as="offset" />
            <mxPoint x="220" y="705" as="sourcePoint" />
          </mxGeometry>
        </mxCell>
        <mxCell id="5gO9kf-e_ShnSdOG_t4v-68" value="" style="edgeStyle=orthogonalEdgeStyle;rounded=0;html=1;jettySize=auto;orthogonalLoop=1;fontSize=11;endArrow=block;endFill=0;endSize=8;strokeWidth=1;shadow=0;labelBackgroundColor=none;entryX=0;entryY=0.5;entryDx=0;entryDy=0;exitX=1;exitY=0.5;exitDx=0;exitDy=0;" edge="1" parent="WIyWlLk6GJQsqaUBKTNV-1" source="5gO9kf-e_ShnSdOG_t4v-74" target="5gO9kf-e_ShnSdOG_t4v-71">
          <mxGeometry y="10" relative="1" as="geometry">
            <mxPoint as="offset" />
            <mxPoint x="270" y="665" as="sourcePoint" />
            <mxPoint x="330" y="655" as="targetPoint" />
          </mxGeometry>
        </mxCell>
        <mxCell id="5gO9kf-e_ShnSdOG_t4v-69" value="Yes" style="edgeStyle=orthogonalEdgeStyle;rounded=0;html=1;jettySize=auto;orthogonalLoop=1;fontSize=11;endArrow=block;endFill=0;endSize=8;strokeWidth=1;shadow=0;labelBackgroundColor=none;entryX=0;entryY=0.5;entryDx=0;entryDy=0;" edge="1" parent="WIyWlLk6GJQsqaUBKTNV-1" source="5gO9kf-e_ShnSdOG_t4v-70" target="5gO9kf-e_ShnSdOG_t4v-80">
          <mxGeometry y="10" relative="1" as="geometry">
            <mxPoint as="offset" />
            <mxPoint x="320" y="785" as="targetPoint" />
          </mxGeometry>
        </mxCell>
        <mxCell id="5gO9kf-e_ShnSdOG_t4v-70" value="Edit Location" style="rhombus;whiteSpace=wrap;html=1;shadow=0;fontFamily=Helvetica;fontSize=12;align=center;strokeWidth=1;spacing=6;spacingTop=-4;" vertex="1" parent="WIyWlLk6GJQsqaUBKTNV-1">
          <mxGeometry x="170" y="745" width="100" height="80" as="geometry" />
        </mxCell>
        <mxCell id="5gO9kf-e_ShnSdOG_t4v-71" value="Input Image Location" style="shape=dataStorage;whiteSpace=wrap;html=1;fixedSize=1;" vertex="1" parent="WIyWlLk6GJQsqaUBKTNV-1">
          <mxGeometry x="324" y="640" width="100" height="50" as="geometry" />
        </mxCell>
        <mxCell id="5gO9kf-e_ShnSdOG_t4v-72" value="" style="edgeStyle=orthogonalEdgeStyle;rounded=0;html=1;jettySize=auto;orthogonalLoop=1;fontSize=11;endArrow=block;endFill=0;endSize=8;strokeWidth=1;shadow=0;labelBackgroundColor=none;exitX=0.876;exitY=0.54;exitDx=0;exitDy=0;exitPerimeter=0;entryX=0;entryY=0.5;entryDx=0;entryDy=0;" edge="1" parent="WIyWlLk6GJQsqaUBKTNV-1" source="5gO9kf-e_ShnSdOG_t4v-71" target="5gO9kf-e_ShnSdOG_t4v-73">
          <mxGeometry y="10" relative="1" as="geometry">
            <mxPoint as="offset" />
            <mxPoint x="430" y="705" as="sourcePoint" />
            <mxPoint x="470" y="667" as="targetPoint" />
          </mxGeometry>
        </mxCell>
        <mxCell id="5gO9kf-e_ShnSdOG_t4v-73" value="Input city" style="shape=parallelogram;perimeter=parallelogramPerimeter;whiteSpace=wrap;html=1;fixedSize=1;" vertex="1" parent="WIyWlLk6GJQsqaUBKTNV-1">
          <mxGeometry x="469" y="637" width="120" height="60" as="geometry" />
        </mxCell>
        <mxCell id="5gO9kf-e_ShnSdOG_t4v-74" value="Input Location" style="shape=parallelogram;perimeter=parallelogramPerimeter;whiteSpace=wrap;html=1;fixedSize=1;" vertex="1" parent="WIyWlLk6GJQsqaUBKTNV-1">
          <mxGeometry x="160" y="635" width="120" height="60" as="geometry" />
        </mxCell>
        <mxCell id="5gO9kf-e_ShnSdOG_t4v-75" value="" style="edgeStyle=orthogonalEdgeStyle;rounded=0;html=1;jettySize=auto;orthogonalLoop=1;fontSize=11;endArrow=block;endFill=0;endSize=8;strokeWidth=1;shadow=0;labelBackgroundColor=none;entryX=0.5;entryY=0;entryDx=0;entryDy=0;exitX=0.5;exitY=1;exitDx=0;exitDy=0;" edge="1" parent="WIyWlLk6GJQsqaUBKTNV-1" target="5gO9kf-e_ShnSdOG_t4v-74" source="5gO9kf-e_ShnSdOG_t4v-1">
          <mxGeometry y="10" relative="1" as="geometry">
            <mxPoint as="offset" />
            <mxPoint x="220" y="590" as="sourcePoint" />
            <mxPoint x="330" y="680" as="targetPoint" />
          </mxGeometry>
        </mxCell>
        <mxCell id="5gO9kf-e_ShnSdOG_t4v-76" value="With Upload Image" style="edgeStyle=orthogonalEdgeStyle;rounded=0;html=1;jettySize=auto;orthogonalLoop=1;fontSize=11;endArrow=block;endFill=0;endSize=8;strokeWidth=1;shadow=0;labelBackgroundColor=none;entryX=0.5;entryY=1;entryDx=0;entryDy=0;exitX=0.5;exitY=0;exitDx=0;exitDy=0;" edge="1" parent="WIyWlLk6GJQsqaUBKTNV-1" source="5gO9kf-e_ShnSdOG_t4v-80" target="5gO9kf-e_ShnSdOG_t4v-71">
          <mxGeometry y="10" relative="1" as="geometry">
            <mxPoint as="offset" />
            <mxPoint x="424.5" y="784" as="sourcePoint" />
            <mxPoint x="484.5" y="774" as="targetPoint" />
          </mxGeometry>
        </mxCell>
        <mxCell id="5gO9kf-e_ShnSdOG_t4v-80" value="Edit Location" style="shape=parallelogram;perimeter=parallelogramPerimeter;whiteSpace=wrap;html=1;fixedSize=1;" vertex="1" parent="WIyWlLk6GJQsqaUBKTNV-1">
          <mxGeometry x="314.5" y="755" width="120" height="60" as="geometry" />
        </mxCell>
        <mxCell id="5gO9kf-e_ShnSdOG_t4v-81" value="Without Upload Image" style="edgeStyle=orthogonalEdgeStyle;rounded=0;html=1;jettySize=auto;orthogonalLoop=1;fontSize=11;endArrow=block;endFill=0;endSize=8;strokeWidth=1;shadow=0;labelBackgroundColor=none;exitX=1;exitY=0.5;exitDx=0;exitDy=0;entryX=0.5;entryY=1;entryDx=0;entryDy=0;" edge="1" parent="WIyWlLk6GJQsqaUBKTNV-1" source="5gO9kf-e_ShnSdOG_t4v-80" target="5gO9kf-e_ShnSdOG_t4v-73">
          <mxGeometry y="10" relative="1" as="geometry">
            <mxPoint as="offset" />
            <mxPoint x="373.3" y="875.02" as="sourcePoint" />
            <mxPoint x="510" y="830" as="targetPoint" />
            <Array as="points">
              <mxPoint x="529" y="785" />
            </Array>
          </mxGeometry>
        </mxCell>
        <mxCell id="5gO9kf-e_ShnSdOG_t4v-83" value="Show Genre" style="shape=parallelogram;perimeter=parallelogramPerimeter;whiteSpace=wrap;html=1;fixedSize=1;" vertex="1" parent="WIyWlLk6GJQsqaUBKTNV-1">
          <mxGeometry x="3" y="160" width="120" height="60" as="geometry" />
        </mxCell>
        <mxCell id="5gO9kf-e_ShnSdOG_t4v-84" value="Show Location" style="shape=parallelogram;perimeter=parallelogramPerimeter;whiteSpace=wrap;html=1;fixedSize=1;" vertex="1" parent="WIyWlLk6GJQsqaUBKTNV-1">
          <mxGeometry x="1" y="520" width="120" height="60" as="geometry" />
        </mxCell>
        <mxCell id="5gO9kf-e_ShnSdOG_t4v-85" value="No" style="edgeStyle=orthogonalEdgeStyle;rounded=0;html=1;jettySize=auto;orthogonalLoop=1;fontSize=11;endArrow=block;endFill=0;endSize=8;strokeWidth=1;shadow=0;labelBackgroundColor=none;exitX=0.5;exitY=1;exitDx=0;exitDy=0;entryX=0.5;entryY=0;entryDx=0;entryDy=0;" edge="1" parent="WIyWlLk6GJQsqaUBKTNV-1" source="5gO9kf-e_ShnSdOG_t4v-70" target="5gO9kf-e_ShnSdOG_t4v-116">
          <mxGeometry y="10" relative="1" as="geometry">
            <mxPoint as="offset" />
            <mxPoint x="219.5" y="870" as="sourcePoint" />
            <mxPoint x="220" y="880" as="targetPoint" />
          </mxGeometry>
        </mxCell>
        <mxCell id="5gO9kf-e_ShnSdOG_t4v-86" value="" style="rounded=0;html=1;jettySize=auto;orthogonalLoop=1;fontSize=11;endArrow=block;endFill=0;endSize=8;strokeWidth=1;shadow=0;labelBackgroundColor=none;edgeStyle=orthogonalEdgeStyle;exitX=1;exitY=0.5;exitDx=0;exitDy=0;entryX=0;entryY=0.5;entryDx=0;entryDy=0;" edge="1" parent="WIyWlLk6GJQsqaUBKTNV-1" source="5gO9kf-e_ShnSdOG_t4v-73" target="5gO9kf-e_ShnSdOG_t4v-87">
          <mxGeometry y="20" relative="1" as="geometry">
            <mxPoint as="offset" />
            <mxPoint x="230" y="705" as="sourcePoint" />
            <mxPoint x="630" y="667" as="targetPoint" />
          </mxGeometry>
        </mxCell>
        <mxCell id="5gO9kf-e_ShnSdOG_t4v-87" value="Select Genre" style="whiteSpace=wrap;html=1;aspect=fixed;" vertex="1" parent="WIyWlLk6GJQsqaUBKTNV-1">
          <mxGeometry x="630" y="627" width="80" height="80" as="geometry" />
        </mxCell>
        <mxCell id="5gO9kf-e_ShnSdOG_t4v-88" value="" style="rounded=0;html=1;jettySize=auto;orthogonalLoop=1;fontSize=11;endArrow=block;endFill=0;endSize=8;strokeWidth=1;shadow=0;labelBackgroundColor=none;edgeStyle=orthogonalEdgeStyle;exitX=1;exitY=0.5;exitDx=0;exitDy=0;entryX=1;entryY=0.5;entryDx=0;entryDy=0;" edge="1" parent="WIyWlLk6GJQsqaUBKTNV-1" source="5gO9kf-e_ShnSdOG_t4v-87" target="5gO9kf-e_ShnSdOG_t4v-1">
          <mxGeometry y="20" relative="1" as="geometry">
            <mxPoint as="offset" />
            <mxPoint x="589" y="677" as="sourcePoint" />
            <mxPoint x="640" y="677" as="targetPoint" />
            <Array as="points">
              <mxPoint x="740" y="667" />
              <mxPoint x="740" y="550" />
            </Array>
          </mxGeometry>
        </mxCell>
        <mxCell id="5gO9kf-e_ShnSdOG_t4v-89" value="" style="rounded=0;html=1;jettySize=auto;orthogonalLoop=1;fontSize=11;endArrow=block;endFill=0;endSize=8;strokeWidth=1;shadow=0;labelBackgroundColor=none;edgeStyle=orthogonalEdgeStyle;exitX=1;exitY=0.25;exitDx=0;exitDy=0;entryX=1;entryY=0.75;entryDx=0;entryDy=0;" edge="1" parent="WIyWlLk6GJQsqaUBKTNV-1" source="5gO9kf-e_ShnSdOG_t4v-3" target="5gO9kf-e_ShnSdOG_t4v-87">
          <mxGeometry y="20" relative="1" as="geometry">
            <mxPoint as="offset" />
            <mxPoint x="599" y="687" as="sourcePoint" />
            <mxPoint x="650" y="687" as="targetPoint" />
            <Array as="points">
              <mxPoint x="750" y="175" />
              <mxPoint x="750" y="687" />
            </Array>
          </mxGeometry>
        </mxCell>
        <mxCell id="5gO9kf-e_ShnSdOG_t4v-91" value="" style="rounded=0;html=1;jettySize=auto;orthogonalLoop=1;fontSize=11;endArrow=block;endFill=0;endSize=8;strokeWidth=1;shadow=0;labelBackgroundColor=none;edgeStyle=orthogonalEdgeStyle;exitX=0.5;exitY=1;exitDx=0;exitDy=0;entryX=0.5;entryY=0;entryDx=0;entryDy=0;entryPerimeter=0;" edge="1" parent="WIyWlLk6GJQsqaUBKTNV-1" source="5gO9kf-e_ShnSdOG_t4v-83" target="5gO9kf-e_ShnSdOG_t4v-41">
          <mxGeometry y="20" relative="1" as="geometry">
            <mxPoint as="offset" />
            <mxPoint x="609" y="697" as="sourcePoint" />
            <mxPoint x="100" y="250" as="targetPoint" />
          </mxGeometry>
        </mxCell>
        <mxCell id="5gO9kf-e_ShnSdOG_t4v-116" value="Concert" style="shape=process;whiteSpace=wrap;html=1;backgroundOutline=1;" vertex="1" parent="WIyWlLk6GJQsqaUBKTNV-1">
          <mxGeometry x="160" y="880" width="120" height="60" as="geometry" />
        </mxCell>
        <mxCell id="5gO9kf-e_ShnSdOG_t4v-117" value="" style="rounded=0;html=1;jettySize=auto;orthogonalLoop=1;fontSize=11;endArrow=block;endFill=0;endSize=8;strokeWidth=1;shadow=0;labelBackgroundColor=none;edgeStyle=orthogonalEdgeStyle;entryX=1;entryY=0.5;entryDx=0;entryDy=0;exitX=0;exitY=0.5;exitDx=0;exitDy=0;" edge="1" parent="WIyWlLk6GJQsqaUBKTNV-1" source="5gO9kf-e_ShnSdOG_t4v-116" target="5gO9kf-e_ShnSdOG_t4v-134">
          <mxGeometry x="0.3333" y="20" relative="1" as="geometry">
            <mxPoint as="offset" />
            <mxPoint x="150" y="910" as="sourcePoint" />
            <mxPoint x="170" y="1280" as="targetPoint" />
            <Array as="points" />
          </mxGeometry>
        </mxCell>
        <mxCell id="5gO9kf-e_ShnSdOG_t4v-118" value="" style="rounded=0;html=1;jettySize=auto;orthogonalLoop=1;fontSize=11;endArrow=block;endFill=0;endSize=8;strokeWidth=1;shadow=0;labelBackgroundColor=none;edgeStyle=orthogonalEdgeStyle;entryX=0.5;entryY=0;entryDx=0;entryDy=0;entryPerimeter=0;exitX=0.5;exitY=1;exitDx=0;exitDy=0;" edge="1" parent="WIyWlLk6GJQsqaUBKTNV-1" source="5gO9kf-e_ShnSdOG_t4v-134" target="5gO9kf-e_ShnSdOG_t4v-119">
          <mxGeometry x="0.3333" y="20" relative="1" as="geometry">
            <mxPoint as="offset" />
            <mxPoint x="58" y="940" as="sourcePoint" />
            <mxPoint x="28" y="1282.5" as="targetPoint" />
            <Array as="points" />
          </mxGeometry>
        </mxCell>
        <mxCell id="5gO9kf-e_ShnSdOG_t4v-119" value="Show Image Concert_name, description city, genre_music, price, seat" style="strokeWidth=2;html=1;shape=mxgraph.flowchart.display;whiteSpace=wrap;" vertex="1" parent="WIyWlLk6GJQsqaUBKTNV-1">
          <mxGeometry x="11" y="967.5" width="100" height="122.5" as="geometry" />
        </mxCell>
        <mxCell id="5gO9kf-e_ShnSdOG_t4v-122" value="" style="rounded=0;html=1;jettySize=auto;orthogonalLoop=1;fontSize=11;endArrow=block;endFill=0;endSize=8;strokeWidth=1;shadow=0;labelBackgroundColor=none;edgeStyle=orthogonalEdgeStyle;exitX=0.5;exitY=1;exitDx=0;exitDy=0;" edge="1" parent="WIyWlLk6GJQsqaUBKTNV-1" source="5gO9kf-e_ShnSdOG_t4v-129" target="5gO9kf-e_ShnSdOG_t4v-125">
          <mxGeometry y="20" relative="1" as="geometry">
            <mxPoint as="offset" />
            <mxPoint x="220" y="1065" as="sourcePoint" />
          </mxGeometry>
        </mxCell>
        <mxCell id="5gO9kf-e_ShnSdOG_t4v-123" value="" style="edgeStyle=orthogonalEdgeStyle;rounded=0;html=1;jettySize=auto;orthogonalLoop=1;fontSize=11;endArrow=block;endFill=0;endSize=8;strokeWidth=1;shadow=0;labelBackgroundColor=none;entryX=0;entryY=0.5;entryDx=0;entryDy=0;exitX=1;exitY=0.5;exitDx=0;exitDy=0;" edge="1" parent="WIyWlLk6GJQsqaUBKTNV-1" source="5gO9kf-e_ShnSdOG_t4v-129" target="5gO9kf-e_ShnSdOG_t4v-126">
          <mxGeometry y="10" relative="1" as="geometry">
            <mxPoint as="offset" />
            <mxPoint x="270" y="1025" as="sourcePoint" />
            <mxPoint x="330" y="1015" as="targetPoint" />
          </mxGeometry>
        </mxCell>
        <mxCell id="5gO9kf-e_ShnSdOG_t4v-124" value="Yes" style="edgeStyle=orthogonalEdgeStyle;rounded=0;html=1;jettySize=auto;orthogonalLoop=1;fontSize=11;endArrow=block;endFill=0;endSize=8;strokeWidth=1;shadow=0;labelBackgroundColor=none;entryX=0;entryY=0.5;entryDx=0;entryDy=0;" edge="1" parent="WIyWlLk6GJQsqaUBKTNV-1" source="5gO9kf-e_ShnSdOG_t4v-125" target="5gO9kf-e_ShnSdOG_t4v-132">
          <mxGeometry y="10" relative="1" as="geometry">
            <mxPoint as="offset" />
            <mxPoint x="320" y="1145" as="targetPoint" />
          </mxGeometry>
        </mxCell>
        <mxCell id="5gO9kf-e_ShnSdOG_t4v-125" value="Edit Concert" style="rhombus;whiteSpace=wrap;html=1;shadow=0;fontFamily=Helvetica;fontSize=12;align=center;strokeWidth=1;spacing=6;spacingTop=-4;" vertex="1" parent="WIyWlLk6GJQsqaUBKTNV-1">
          <mxGeometry x="170" y="1105" width="100" height="80" as="geometry" />
        </mxCell>
        <mxCell id="5gO9kf-e_ShnSdOG_t4v-126" value="Input Image Concert" style="shape=dataStorage;whiteSpace=wrap;html=1;fixedSize=1;" vertex="1" parent="WIyWlLk6GJQsqaUBKTNV-1">
          <mxGeometry x="324" y="1000" width="100" height="50" as="geometry" />
        </mxCell>
        <mxCell id="5gO9kf-e_ShnSdOG_t4v-127" value="" style="edgeStyle=orthogonalEdgeStyle;rounded=0;html=1;jettySize=auto;orthogonalLoop=1;fontSize=11;endArrow=block;endFill=0;endSize=8;strokeWidth=1;shadow=0;labelBackgroundColor=none;exitX=0.876;exitY=0.54;exitDx=0;exitDy=0;exitPerimeter=0;entryX=0;entryY=0.5;entryDx=0;entryDy=0;" edge="1" parent="WIyWlLk6GJQsqaUBKTNV-1" source="5gO9kf-e_ShnSdOG_t4v-126" target="5gO9kf-e_ShnSdOG_t4v-128">
          <mxGeometry y="10" relative="1" as="geometry">
            <mxPoint as="offset" />
            <mxPoint x="430" y="1065" as="sourcePoint" />
            <mxPoint x="470" y="1027" as="targetPoint" />
          </mxGeometry>
        </mxCell>
        <mxCell id="5gO9kf-e_ShnSdOG_t4v-128" value="Input Concert_name" style="shape=parallelogram;perimeter=parallelogramPerimeter;whiteSpace=wrap;html=1;fixedSize=1;" vertex="1" parent="WIyWlLk6GJQsqaUBKTNV-1">
          <mxGeometry x="469" y="997" width="120" height="60" as="geometry" />
        </mxCell>
        <mxCell id="5gO9kf-e_ShnSdOG_t4v-129" value="Input Concert" style="shape=parallelogram;perimeter=parallelogramPerimeter;whiteSpace=wrap;html=1;fixedSize=1;" vertex="1" parent="WIyWlLk6GJQsqaUBKTNV-1">
          <mxGeometry x="160" y="995" width="120" height="60" as="geometry" />
        </mxCell>
        <mxCell id="5gO9kf-e_ShnSdOG_t4v-130" value="" style="edgeStyle=orthogonalEdgeStyle;rounded=0;html=1;jettySize=auto;orthogonalLoop=1;fontSize=11;endArrow=block;endFill=0;endSize=8;strokeWidth=1;shadow=0;labelBackgroundColor=none;entryX=0.5;entryY=0;entryDx=0;entryDy=0;exitX=0.5;exitY=1;exitDx=0;exitDy=0;" edge="1" parent="WIyWlLk6GJQsqaUBKTNV-1" source="5gO9kf-e_ShnSdOG_t4v-116" target="5gO9kf-e_ShnSdOG_t4v-129">
          <mxGeometry y="10" relative="1" as="geometry">
            <mxPoint as="offset" />
            <mxPoint x="220" y="950" as="sourcePoint" />
            <mxPoint x="330" y="1040" as="targetPoint" />
          </mxGeometry>
        </mxCell>
        <mxCell id="5gO9kf-e_ShnSdOG_t4v-131" value="With Upload Image" style="edgeStyle=orthogonalEdgeStyle;rounded=0;html=1;jettySize=auto;orthogonalLoop=1;fontSize=11;endArrow=block;endFill=0;endSize=8;strokeWidth=1;shadow=0;labelBackgroundColor=none;entryX=0.5;entryY=1;entryDx=0;entryDy=0;exitX=0.5;exitY=0;exitDx=0;exitDy=0;" edge="1" parent="WIyWlLk6GJQsqaUBKTNV-1" source="5gO9kf-e_ShnSdOG_t4v-132" target="5gO9kf-e_ShnSdOG_t4v-126">
          <mxGeometry y="10" relative="1" as="geometry">
            <mxPoint as="offset" />
            <mxPoint x="424.5" y="1144" as="sourcePoint" />
            <mxPoint x="484.5" y="1134" as="targetPoint" />
          </mxGeometry>
        </mxCell>
        <mxCell id="5gO9kf-e_ShnSdOG_t4v-132" value="Edit Concert" style="shape=parallelogram;perimeter=parallelogramPerimeter;whiteSpace=wrap;html=1;fixedSize=1;" vertex="1" parent="WIyWlLk6GJQsqaUBKTNV-1">
          <mxGeometry x="314.5" y="1115" width="120" height="60" as="geometry" />
        </mxCell>
        <mxCell id="5gO9kf-e_ShnSdOG_t4v-133" value="Without Upload Image" style="edgeStyle=orthogonalEdgeStyle;rounded=0;html=1;jettySize=auto;orthogonalLoop=1;fontSize=11;endArrow=block;endFill=0;endSize=8;strokeWidth=1;shadow=0;labelBackgroundColor=none;exitX=1;exitY=0.5;exitDx=0;exitDy=0;entryX=0.5;entryY=1;entryDx=0;entryDy=0;" edge="1" parent="WIyWlLk6GJQsqaUBKTNV-1" source="5gO9kf-e_ShnSdOG_t4v-132" target="5gO9kf-e_ShnSdOG_t4v-128">
          <mxGeometry y="10" relative="1" as="geometry">
            <mxPoint as="offset" />
            <mxPoint x="373.3" y="1235.02" as="sourcePoint" />
            <mxPoint x="510" y="1190" as="targetPoint" />
            <Array as="points">
              <mxPoint x="529" y="1145" />
            </Array>
          </mxGeometry>
        </mxCell>
        <mxCell id="5gO9kf-e_ShnSdOG_t4v-134" value="Show Concert" style="shape=parallelogram;perimeter=parallelogramPerimeter;whiteSpace=wrap;html=1;fixedSize=1;" vertex="1" parent="WIyWlLk6GJQsqaUBKTNV-1">
          <mxGeometry x="1" y="880" width="120" height="60" as="geometry" />
        </mxCell>
        <mxCell id="5gO9kf-e_ShnSdOG_t4v-135" value="No" style="edgeStyle=orthogonalEdgeStyle;rounded=0;html=1;jettySize=auto;orthogonalLoop=1;fontSize=11;endArrow=block;endFill=0;endSize=8;strokeWidth=1;shadow=0;labelBackgroundColor=none;exitX=0.5;exitY=1;exitDx=0;exitDy=0;entryX=0.5;entryY=0;entryDx=0;entryDy=0;" edge="1" parent="WIyWlLk6GJQsqaUBKTNV-1" source="5gO9kf-e_ShnSdOG_t4v-125" target="WIyWlLk6GJQsqaUBKTNV-11">
          <mxGeometry y="10" relative="1" as="geometry">
            <mxPoint as="offset" />
            <mxPoint x="220.5" y="1230" as="sourcePoint" />
            <mxPoint x="221" y="1240" as="targetPoint" />
          </mxGeometry>
        </mxCell>
        <mxCell id="5gO9kf-e_ShnSdOG_t4v-136" value="" style="rounded=0;html=1;jettySize=auto;orthogonalLoop=1;fontSize=11;endArrow=block;endFill=0;endSize=8;strokeWidth=1;shadow=0;labelBackgroundColor=none;edgeStyle=orthogonalEdgeStyle;exitX=1;exitY=0.5;exitDx=0;exitDy=0;entryX=0;entryY=0.5;entryDx=0;entryDy=0;" edge="1" parent="WIyWlLk6GJQsqaUBKTNV-1" source="5gO9kf-e_ShnSdOG_t4v-144" target="5gO9kf-e_ShnSdOG_t4v-137">
          <mxGeometry y="20" relative="1" as="geometry">
            <mxPoint as="offset" />
            <mxPoint x="230" y="1065" as="sourcePoint" />
            <mxPoint x="630" y="1027" as="targetPoint" />
          </mxGeometry>
        </mxCell>
        <mxCell id="5gO9kf-e_ShnSdOG_t4v-137" value="Select City" style="whiteSpace=wrap;html=1;aspect=fixed;" vertex="1" parent="WIyWlLk6GJQsqaUBKTNV-1">
          <mxGeometry x="790" y="987" width="80" height="80" as="geometry" />
        </mxCell>
        <mxCell id="5gO9kf-e_ShnSdOG_t4v-143" value="" style="edgeStyle=orthogonalEdgeStyle;rounded=0;html=1;jettySize=auto;orthogonalLoop=1;fontSize=11;endArrow=block;endFill=0;endSize=8;strokeWidth=1;shadow=0;labelBackgroundColor=none;exitX=1;exitY=0.5;exitDx=0;exitDy=0;entryX=0;entryY=0.5;entryDx=0;entryDy=0;" edge="1" parent="WIyWlLk6GJQsqaUBKTNV-1" target="5gO9kf-e_ShnSdOG_t4v-144" source="5gO9kf-e_ShnSdOG_t4v-128">
          <mxGeometry y="10" relative="1" as="geometry">
            <mxPoint as="offset" />
            <mxPoint x="589" y="1139" as="sourcePoint" />
            <mxPoint x="647" y="1139" as="targetPoint" />
          </mxGeometry>
        </mxCell>
        <mxCell id="5gO9kf-e_ShnSdOG_t4v-144" value="Input Description" style="shape=parallelogram;perimeter=parallelogramPerimeter;whiteSpace=wrap;html=1;fixedSize=1;" vertex="1" parent="WIyWlLk6GJQsqaUBKTNV-1">
          <mxGeometry x="620" y="997" width="120" height="60" as="geometry" />
        </mxCell>
        <mxCell id="5gO9kf-e_ShnSdOG_t4v-145" value="" style="rounded=0;html=1;jettySize=auto;orthogonalLoop=1;fontSize=11;endArrow=block;endFill=0;endSize=8;strokeWidth=1;shadow=0;labelBackgroundColor=none;edgeStyle=orthogonalEdgeStyle;exitX=0.5;exitY=1;exitDx=0;exitDy=0;entryX=0.5;entryY=0;entryDx=0;entryDy=0;" edge="1" parent="WIyWlLk6GJQsqaUBKTNV-1" target="5gO9kf-e_ShnSdOG_t4v-146" source="5gO9kf-e_ShnSdOG_t4v-137">
          <mxGeometry y="20" relative="1" as="geometry">
            <mxPoint as="offset" />
            <mxPoint x="680" y="1175" as="sourcePoint" />
            <mxPoint x="630" y="1147" as="targetPoint" />
          </mxGeometry>
        </mxCell>
        <mxCell id="5gO9kf-e_ShnSdOG_t4v-146" value="Select Genre_music" style="whiteSpace=wrap;html=1;aspect=fixed;" vertex="1" parent="WIyWlLk6GJQsqaUBKTNV-1">
          <mxGeometry x="790" y="1105" width="80" height="80" as="geometry" />
        </mxCell>
        <mxCell id="5gO9kf-e_ShnSdOG_t4v-148" value="Input Price" style="shape=parallelogram;perimeter=parallelogramPerimeter;whiteSpace=wrap;html=1;fixedSize=1;" vertex="1" parent="WIyWlLk6GJQsqaUBKTNV-1">
          <mxGeometry x="570" y="1240" width="120" height="60" as="geometry" />
        </mxCell>
        <mxCell id="5gO9kf-e_ShnSdOG_t4v-149" value="" style="rounded=0;html=1;jettySize=auto;orthogonalLoop=1;fontSize=11;endArrow=block;endFill=0;endSize=8;strokeWidth=1;shadow=0;labelBackgroundColor=none;edgeStyle=orthogonalEdgeStyle;exitX=1;exitY=0.5;exitDx=0;exitDy=0;entryX=1;entryY=0.5;entryDx=0;entryDy=0;" edge="1" parent="WIyWlLk6GJQsqaUBKTNV-1" source="5gO9kf-e_ShnSdOG_t4v-151" target="5gO9kf-e_ShnSdOG_t4v-116">
          <mxGeometry y="20" relative="1" as="geometry">
            <mxPoint as="offset" />
            <mxPoint x="331" y="1308" as="sourcePoint" />
            <mxPoint x="891" y="1270" as="targetPoint" />
            <Array as="points">
              <mxPoint x="920" y="1270" />
              <mxPoint x="920" y="910" />
            </Array>
          </mxGeometry>
        </mxCell>
        <mxCell id="5gO9kf-e_ShnSdOG_t4v-150" value="" style="edgeStyle=orthogonalEdgeStyle;rounded=0;html=1;jettySize=auto;orthogonalLoop=1;fontSize=11;endArrow=block;endFill=0;endSize=8;strokeWidth=1;shadow=0;labelBackgroundColor=none;exitX=1;exitY=0.5;exitDx=0;exitDy=0;entryX=0;entryY=0.5;entryDx=0;entryDy=0;" edge="1" parent="WIyWlLk6GJQsqaUBKTNV-1" source="5gO9kf-e_ShnSdOG_t4v-148" target="5gO9kf-e_ShnSdOG_t4v-151">
          <mxGeometry y="10" relative="1" as="geometry">
            <mxPoint as="offset" />
            <mxPoint x="690" y="1382" as="sourcePoint" />
            <mxPoint x="748" y="1382" as="targetPoint" />
          </mxGeometry>
        </mxCell>
        <mxCell id="5gO9kf-e_ShnSdOG_t4v-151" value="Input Seat" style="shape=parallelogram;perimeter=parallelogramPerimeter;whiteSpace=wrap;html=1;fixedSize=1;" vertex="1" parent="WIyWlLk6GJQsqaUBKTNV-1">
          <mxGeometry x="721" y="1240" width="120" height="60" as="geometry" />
        </mxCell>
        <mxCell id="5gO9kf-e_ShnSdOG_t4v-152" value="" style="rounded=0;html=1;jettySize=auto;orthogonalLoop=1;fontSize=11;endArrow=block;endFill=0;endSize=8;strokeWidth=1;shadow=0;labelBackgroundColor=none;edgeStyle=orthogonalEdgeStyle;exitX=0.5;exitY=1;exitDx=0;exitDy=0;entryX=0.017;entryY=0.5;entryDx=0;entryDy=0;entryPerimeter=0;" edge="1" parent="WIyWlLk6GJQsqaUBKTNV-1" source="5gO9kf-e_ShnSdOG_t4v-146" target="5gO9kf-e_ShnSdOG_t4v-148">
          <mxGeometry y="20" relative="1" as="geometry">
            <mxPoint as="offset" />
            <mxPoint x="871" y="1280" as="sourcePoint" />
            <mxPoint x="931" y="1280" as="targetPoint" />
            <Array as="points">
              <mxPoint x="830" y="1213" />
              <mxPoint x="530" y="1213" />
              <mxPoint x="530" y="1270" />
            </Array>
          </mxGeometry>
        </mxCell>
        <mxCell id="5gO9kf-e_ShnSdOG_t4v-153" value="" style="rounded=0;html=1;jettySize=auto;orthogonalLoop=1;fontSize=11;endArrow=block;endFill=0;endSize=8;strokeWidth=1;shadow=0;labelBackgroundColor=none;edgeStyle=orthogonalEdgeStyle;exitX=1;exitY=0.25;exitDx=0;exitDy=0;entryX=1;entryY=0.5;entryDx=0;entryDy=0;" edge="1" parent="WIyWlLk6GJQsqaUBKTNV-1" source="5gO9kf-e_ShnSdOG_t4v-3" target="5gO9kf-e_ShnSdOG_t4v-146">
          <mxGeometry y="20" relative="1" as="geometry">
            <mxPoint as="offset" />
            <mxPoint x="290" y="185" as="sourcePoint" />
            <mxPoint x="720" y="697" as="targetPoint" />
            <Array as="points">
              <mxPoint x="280" y="185" />
              <mxPoint x="960" y="185" />
              <mxPoint x="960" y="1145" />
            </Array>
          </mxGeometry>
        </mxCell>
        <mxCell id="5gO9kf-e_ShnSdOG_t4v-154" value="" style="rounded=0;html=1;jettySize=auto;orthogonalLoop=1;fontSize=11;endArrow=block;endFill=0;endSize=8;strokeWidth=1;shadow=0;labelBackgroundColor=none;edgeStyle=orthogonalEdgeStyle;exitX=1;exitY=0.25;exitDx=0;exitDy=0;entryX=1;entryY=0.5;entryDx=0;entryDy=0;" edge="1" parent="WIyWlLk6GJQsqaUBKTNV-1" source="5gO9kf-e_ShnSdOG_t4v-116" target="5gO9kf-e_ShnSdOG_t4v-137">
          <mxGeometry y="20" relative="1" as="geometry">
            <mxPoint as="offset" />
            <mxPoint x="840" y="1077" as="sourcePoint" />
            <mxPoint x="840" y="1115" as="targetPoint" />
            <Array as="points">
              <mxPoint x="940" y="895" />
              <mxPoint x="940" y="1027" />
            </Array>
          </mxGeometry>
        </mxCell>
        <mxCell id="5gO9kf-e_ShnSdOG_t4v-155" value="&lt;h1 style=&quot;margin-top: 0px;&quot;&gt;&lt;font style=&quot;font-size: 14px;&quot;&gt;Project Server-Side Internet Programming&lt;/font&gt;&lt;/h1&gt;&lt;p&gt;Abdurrahman Khairi&lt;/p&gt;&lt;p&gt;001202300163&lt;/p&gt;&lt;p&gt;Informatics Class 4&lt;/p&gt;" style="text;html=1;whiteSpace=wrap;overflow=hidden;rounded=0;" vertex="1" parent="WIyWlLk6GJQsqaUBKTNV-1">
          <mxGeometry x="314.5" y="40" width="290" height="120" as="geometry" />
        </mxCell>
      </root>
    </mxGraphModel>
  </diagram>
</mxfile>
